<?xml version="1.0" encoding="UTF-8"?>
<svg xmlns="http://www.w3.org/2000/svg" viewBox="0 0 222 299.74">
  <defs>
    <style>
      .cls-1 {
        letter-spacing: 0em;
      }

      .cls-2 {
        fill: #29abe2;
      }

      .cls-3 {
        font-size: 11.47px;
      }

      .cls-3, .cls-4 {
        font-family: Montserrat-Regular, Montserrat;
        font-variation-settings: 'wght' 400;
      }

      .cls-5 {
        letter-spacing: .16em;
      }

      .cls-6 {
        fill: #fff;
      }

      .cls-7 {
        fill: none;
        stroke: #021024;
        stroke-miterlimit: 10;
      }

      .cls-8 {
        fill: #052659;
      }

      .cls-4 {
        font-size: 6.55px;
      }

      .cls-9 {
        letter-spacing: -.04em;
      }

      .cls-10 {
        letter-spacing: .18em;
      }

      .cls-11 {
        letter-spacing: .16em;
      }

      .cls-12 {
        letter-spacing: .2em;
      }
    </style>
  </defs>
  <rect class="cls-6" width="222" height="299.74"/>
  <g id="Layer_1" data-name="Layer 1">
    <g>
      <path class="cls-8" d="M138.77,98.29h-15.53v.4s4.9-.4,5.15,3.48c0,.54.01,4.43.02,5.83l.02,5.92c0,2.23.26,25.26-.34,26.29-.56.97-1.55,1.52-2.61,1.77-.76.17-1.55.21-2.32.18v.45h16.12v-.45c0,.06-.9.12-.96.12-.7.02-1.41-.07-2.05-.36-1.34-.6-1.94-1.91-2.13-3.3-.28-1.98-.11-29.38-.11-31.35,0-1.33,0-4.73,0-5.1,0,0,0-3.79,4.74-3.51v-.36Z"/>
      <polygon class="cls-8" points="123.76 133.28 118.19 133.28 118.22 113.15 123.69 116.99 123.76 133.28"/>
      <path class="cls-8" d="M116.98,105.63l-6.85,4.77v23.64s3.3-.93,6.78-.77l.06-27.64Z"/>
      <path class="cls-8" d="M108.28,134.2s-3.49.64-5.63,1.47l.1-9.44,5.47-3.87.06,11.84Z"/>
      <path class="cls-8" d="M126.98,134.88s-27.13-5.06-48.19,12.06c0,0,14.3-9.74,28.81-11.28s19.39-.78,19.39-.78Z"/>
      <path class="cls-2" d="M127.09,136.35s-29.68-3.22-50.25,15.06h13.79s12.83-13.74,36.47-15.06Z"/>
    </g>
    <g>
      <polygon class="cls-8" points="40.43 153.84 45.31 153.84 45.31 183.39 40.64 183.39 40.43 153.84"/>
      <path d="M51.82,165.3v-3.21h21.05l-15.07,17.88h15.07v3.21h-22.4l15.22-17.68s-14.01-.2-13.86-.2Z"/>
      <polygon class="cls-8" points="100.95 154.12 105.97 154.12 117.75 176.98 129.88 154.05 135.11 153.84 120.05 183.05 115.52 183.05 100.95 154.12"/>
      <polygon points="137.56 162.18 141 162.18 141 182.99 137.71 182.99 137.56 162.18"/>
      <polygon points="154.15 165.15 146.17 165.15 146.17 162.33 165.46 162.33 165.46 165.11 157.44 165.11 157.44 182.73 154.32 182.73 154.15 165.15"/>
      <polygon points="169.26 182.73 165.72 182.73 175.59 162.33 178.54 162.29 188.81 182.77 185.2 182.77 177.25 167.12 169.26 182.73"/>
      <polygon class="cls-2" points="175.63 182.8 173.35 182.66 177.03 176.87 180.82 182.69 178.65 182.73 177.1 180.48 175.63 182.8"/>
      <polygon points="80.9 182.95 77.29 182.95 87.38 162.08 90.4 162.04 100.91 182.98 97.22 182.98 89.08 166.97 80.9 182.95"/>
      <polygon class="cls-2" points="87.42 183.02 85.09 182.87 88.85 176.96 92.73 182.91 90.51 182.95 88.93 180.65 87.42 183.02"/>
      <g>
        <text class="cls-4" transform="translate(52.14 214.72)"><tspan class="cls-12" x="0" y="0">INN</tspan><tspan class="cls-10" x="16.56" y="0">O</tspan><tspan class="cls-11" x="23.24" y="0">V</tspan><tspan class="cls-5" x="28.88" y="0">A</tspan><tspan class="cls-12" x="34.66" y="0">TE • DESIGN • BUILD</tspan></text>
        <text class="cls-3" transform="translate(68.49 202.18)"><tspan x="0" y="0">INFR</tspan><tspan class="cls-9" x="28.33" y="0">A</tspan><tspan x="36.16" y="0">T</tspan><tspan class="cls-1" x="42.74" y="0">E</tspan><tspan x="50.39" y="0">CH LLP</tspan></text>
        <line class="cls-7" x1="40.99" y1="198.94" x2="65.25" y2="198.94"/>
        <line class="cls-7" x1="163.99" y1="198.94" x2="188.25" y2="198.94"/>
      </g>
    </g>
  </g>
</svg>