<?xml version="1.0" encoding="UTF-8"?>
<svg id="Layer_1" data-name="Layer 1" xmlns="http://www.w3.org/2000/svg" viewBox="0 0 222 145.02">
  <defs>
    <style>
      .cls-1 {
        fill: #29abe2;
      }

      .cls-2 {
        fill: #fff;
      }

      .cls-3 {
        fill: none;
        stroke: #fbfeff;
        stroke-miterlimit: 10;
      }

      .cls-4 {
        fill: #fbfeff;
      }
    </style>
  </defs>
  <path class="cls-2" d="M130.08,13.12h-15.53v.4s4.9-.4,5.15,3.48c0,.54.01,4.43.02,5.83l.02,5.92c0,2.23.26,25.26-.34,26.29-.56.97-1.55,1.52-2.61,1.77-.76.17-1.55.21-2.32.18v.45h16.12v-.45c0,.06-.9.12-.96.12-.7.02-1.41-.07-2.05-.36-1.34-.6-1.94-1.91-2.13-3.3-.28-1.98-.11-29.38-.11-31.35v-5.1s0-3.79,4.74-3.51v-.36h0Z"/>
  <polygon class="cls-2" points="115.07 48.1 109.5 48.1 109.53 27.98 115 31.82 115.07 48.1"/>
  <path class="cls-2" d="M108.29,20.45l-6.85,4.77v23.64s3.3-.93,6.78-.77l.06-27.64h0Z"/>
  <path class="cls-2" d="M99.59,49.02s-3.49.64-5.63,1.47l.1-9.44,5.47-3.87.06,11.84h0Z"/>
  <path class="cls-2" d="M118.29,49.7s-27.13-5.06-48.19,12.06c0,0,14.3-9.74,28.81-11.28s19.39-.78,19.39-.78h-.01Z"/>
  <path class="cls-1" d="M118.4,51.18s-29.68-3.22-50.25,15.06h13.79s12.83-13.74,36.47-15.06h-.01Z"/>
  <polygon class="cls-2" points="31.74 68.66 36.62 68.66 36.62 98.22 31.95 98.22 31.74 68.66"/>
  <path class="cls-4" d="M43.13,80.13v-3.21h21.05l-15.07,17.88h15.07v3.21h-22.4l15.22-17.68s-14.01-.2-13.86-.2h-.01Z"/>
  <polygon class="cls-2" points="92.26 68.94 97.28 68.94 109.06 91.81 121.19 68.87 126.42 68.66 111.36 97.87 106.83 97.87 92.26 68.94"/>
  <polygon class="cls-4" points="128.87 77 132.31 77 132.31 97.82 129.02 97.82 128.87 77"/>
  <polygon class="cls-4" points="145.46 79.98 137.48 79.98 137.48 77.16 156.77 77.16 156.77 79.93 148.75 79.93 148.75 97.55 145.63 97.55 145.46 79.98"/>
  <polygon class="cls-4" points="160.57 97.55 157.03 97.55 166.9 77.16 169.85 77.12 180.12 97.59 176.51 97.59 168.56 81.94 160.57 97.55"/>
  <polygon class="cls-1" points="166.94 97.63 164.66 97.48 168.34 91.7 172.13 97.52 169.96 97.55 168.41 95.31 166.94 97.63"/>
  <polygon class="cls-4" points="72.21 97.77 68.6 97.77 78.69 76.9 81.71 76.86 92.22 97.81 88.53 97.81 80.39 81.8 72.21 97.77"/>
  <polygon class="cls-1" points="78.73 97.85 76.4 97.7 80.16 91.78 84.04 97.73 81.82 97.77 80.24 95.47 78.73 97.85"/>
  <g>
    <path class="cls-4" d="M44.19,129.55v-4.59h.49v4.59h-.49Z"/>
    <path class="cls-4" d="M47.48,129.55v-4.59h.4l3.17,3.98h-.21v-3.98h.48v4.59h-.4l-3.16-3.98h.21v3.98h-.49Z"/>
    <path class="cls-4" d="M54.12,129.55v-4.59h.4l3.17,3.98h-.21v-3.98h.48v4.59h-.4l-3.16-3.98h.21v3.98h-.49Z"/>
    <path class="cls-4" d="M62.76,129.59c-.35,0-.67-.06-.96-.17-.29-.12-.55-.28-.77-.49-.22-.21-.38-.46-.5-.74s-.18-.59-.18-.93.06-.65.18-.93.29-.53.5-.74c.22-.21.47-.38.76-.49.29-.12.61-.17.96-.17s.66.06.96.17c.29.12.55.28.76.49.22.21.38.46.5.74s.18.59.18.93-.06.65-.18.93-.29.53-.5.74c-.22.21-.47.37-.76.49-.29.12-.61.17-.96.17h.01ZM62.76,129.15c.28,0,.53-.05.76-.14s.44-.23.61-.4.31-.37.4-.6c.1-.23.14-.48.14-.76s-.05-.53-.14-.76c-.1-.23-.23-.43-.4-.6-.17-.17-.38-.31-.61-.4-.23-.09-.49-.14-.76-.14s-.53.05-.77.14-.44.23-.62.4c-.17.17-.31.37-.41.6-.1.23-.14.48-.14.76s.05.52.14.75.23.43.41.61.38.31.62.4c.24.09.49.14.77.14Z"/>
    <path class="cls-4" d="M68.73,129.55l-2.03-4.59h.52l1.9,4.32h-.29l1.91-4.32h.49l-2.03,4.59h-.48.01Z"/>
    <path class="cls-4" d="M72.34,129.55l2.1-4.59h.48l2.1,4.59h-.51l-1.93-4.3h.2l-1.93,4.3h-.51ZM73.17,128.32l.14-.39h2.67l.14.39h-2.96.01Z"/>
    <path class="cls-4" d="M79.75,129.55v-4.17h-1.61v-.42h3.71v.42h-1.61v4.17h-.49Z"/>
    <path class="cls-4" d="M83.93,129.55v-4.59h3.14v.42h-2.66v3.75h2.76v.42h-3.24ZM84.36,127.42v-.41h2.42v.41h-2.42Z"/>
    <path class="cls-4" d="M92.94,127.75c-.09,0-.17-.02-.25-.07-.08-.04-.14-.1-.18-.18-.04-.07-.07-.16-.07-.26,0-.09.02-.17.07-.25.04-.07.1-.13.18-.18.08-.04.16-.07.25-.07s.17.02.24.07.13.1.18.18.07.16.07.25c0,.1-.02.19-.07.26s-.11.13-.18.18c-.07.04-.16.07-.24.07Z"/>
    <path class="cls-4" d="M99.05,129.55v-4.59h1.87c.49,0,.92.1,1.29.29s.66.46.86.81c.21.35.31.74.31,1.19s-.1.85-.31,1.19c-.21.34-.49.61-.86.81s-.8.29-1.29.29h-1.87ZM99.54,129.13h1.36c.41,0,.76-.08,1.06-.24.3-.16.53-.38.7-.66.17-.28.25-.61.25-.97s-.08-.7-.25-.98-.4-.5-.7-.66-.65-.24-1.06-.24h-1.36v3.75Z"/>
    <path class="cls-4" d="M105.77,129.55v-4.59h3.15v.42h-2.66v3.75h2.76v.42h-3.25ZM106.21,127.42v-.41h2.42v.41h-2.42Z"/>
    <path class="cls-4" d="M112.73,129.59c-.34,0-.67-.06-.98-.17s-.55-.25-.72-.43l.19-.37c.16.16.38.29.65.4s.56.16.86.16.52-.04.7-.11.31-.17.4-.29.13-.26.13-.41c0-.18-.05-.32-.15-.43-.1-.11-.24-.2-.4-.26-.17-.06-.35-.12-.55-.17s-.4-.1-.6-.15-.39-.13-.55-.22-.3-.21-.41-.36c-.1-.15-.15-.35-.15-.59s.06-.44.18-.63c.12-.19.3-.34.55-.46s.57-.17.96-.17c.26,0,.51.04.77.11.25.07.47.17.66.3l-.16.39c-.2-.13-.41-.23-.63-.29-.22-.06-.43-.09-.64-.09-.28,0-.5.04-.68.11s-.31.17-.4.3c-.08.12-.13.27-.13.42,0,.18.05.32.15.43.1.11.24.19.41.25s.35.12.55.16c.2.05.4.1.6.16.2.06.38.13.55.22s.3.21.41.36c.1.15.15.34.15.58,0,.22-.06.43-.18.62s-.31.34-.56.46-.57.17-.97.17h-.01Z"/>
    <path class="cls-4" d="M116.81,129.55v-4.59h.49v4.59h-.49Z"/>
    <path class="cls-4" d="M122.11,129.59c-.35,0-.67-.06-.97-.17-.29-.12-.55-.28-.77-.49-.22-.21-.38-.46-.5-.74s-.18-.59-.18-.93.06-.65.18-.93.29-.53.51-.74c.22-.21.48-.37.77-.49.29-.12.62-.17.97-.17s.67.05.96.16c.29.11.54.27.74.5l-.3.31c-.19-.19-.4-.33-.64-.41s-.48-.12-.75-.12-.54.05-.78.14c-.24.09-.45.23-.62.4-.18.17-.31.37-.41.6-.1.23-.15.48-.15.76s.05.52.15.75c.1.23.24.43.41.61s.38.31.62.4c.24.09.5.14.78.14.26,0,.51-.04.74-.12s.45-.21.65-.4l.28.37c-.22.19-.47.34-.77.44-.29.1-.6.15-.92.15v-.02ZM123.79,129l-.46-.06v-1.69h.46v1.75Z"/>
    <path class="cls-4" d="M126.47,129.55v-4.59h.4l3.17,3.98h-.21v-3.98h.48v4.59h-.4l-3.16-3.98h.21v3.98h-.49Z"/>
    <path class="cls-4" d="M136.43,127.75c-.09,0-.17-.02-.25-.07-.08-.04-.14-.1-.18-.18-.04-.07-.07-.16-.07-.26,0-.09.02-.17.07-.25.04-.07.1-.13.18-.18.08-.04.16-.07.25-.07s.17.02.24.07.13.1.18.18.07.16.07.25c0,.1-.02.19-.07.26s-.11.13-.18.18c-.07.04-.16.07-.24.07Z"/>
    <path class="cls-4" d="M142.54,129.55v-4.59h1.98c.51,0,.91.1,1.19.31s.42.5.42.87c0,.25-.06.46-.17.63-.12.17-.27.3-.47.39-.2.09-.42.13-.65.13l.11-.16c.29,0,.54.04.76.13.21.09.38.22.5.4s.18.4.18.66c0,.39-.14.69-.43.9s-.72.32-1.29.32h-2.13ZM143.02,129.15h1.62c.4,0,.71-.07.92-.21.21-.14.32-.36.32-.66s-.11-.51-.32-.65-.52-.21-.92-.21h-1.67v-.4h1.51c.37,0,.65-.07.85-.21s.3-.35.3-.62-.1-.49-.3-.63-.49-.21-.85-.21h-1.46v3.79h0Z"/>
    <path class="cls-4" d="M150.64,129.59c-.58,0-1.05-.17-1.38-.5-.34-.34-.5-.83-.5-1.49v-2.63h.49v2.61c0,.54.12.94.37,1.2.24.26.59.39,1.04.39s.8-.13,1.04-.39.37-.66.37-1.2v-2.61h.47v2.63c0,.66-.17,1.16-.5,1.49-.33.34-.79.5-1.38.5h-.02Z"/>
    <path class="cls-4" d="M155.29,129.55v-4.59h.48v4.59h-.48Z"/>
    <path class="cls-4" d="M158.58,129.55v-4.59h.48v4.17h2.57v.42h-3.05Z"/>
    <path class="cls-4" d="M163.75,129.55v-4.59h1.87c.49,0,.92.1,1.29.29s.66.46.86.81c.21.35.31.74.31,1.19s-.1.85-.31,1.19c-.21.34-.49.61-.86.81s-.8.29-1.29.29h-1.87ZM164.24,129.13h1.36c.41,0,.76-.08,1.06-.24.3-.16.53-.38.7-.66.17-.28.25-.61.25-.97s-.08-.7-.25-.98-.4-.5-.7-.66-.65-.24-1.06-.24h-1.36v3.75Z"/>
  </g>
  <g>
    <path class="cls-4" d="M61.11,117v-8.03h.85v8.03h-.85Z"/>
    <path class="cls-4" d="M64.57,117v-8.03h.7l5.54,6.97h-.37v-6.97h.84v8.03h-.7l-5.53-6.97h.37v6.97h-.85Z"/>
    <path class="cls-4" d="M73.89,117v-8.03h5.5v.73h-4.66v7.29h-.85,0ZM74.65,113.6v-.73h4.24v.73h-4.24Z"/>
    <path class="cls-4" d="M81.15,117v-8.03h3c1.02,0,1.82.24,2.4.73s.88,1.16.88,2.02c0,.57-.13,1.05-.4,1.46s-.64.72-1.13.94-1.07.33-1.75.33h-2.53l.38-.39v2.94s-.85,0-.85,0ZM82,114.13l-.38-.4h2.51c.8,0,1.41-.18,1.83-.53.42-.35.62-.84.62-1.48s-.21-1.14-.62-1.49c-.42-.35-1.03-.53-1.83-.53h-2.51l.38-.4v4.83ZM86.63,117l-2.06-2.91h.92l2.08,2.91h-.94Z"/>
    <path class="cls-4" d="M88.16,117l3.67-8.03h.84l3.67,8.03h-.89l-3.37-7.53h.34l-3.37,7.53h-.89ZM89.6,114.86l.25-.69h4.67l.25.69h-5.17Z"/>
    <path class="cls-4" d="M98.82,117v-7.29h-2.82v-.73h6.49v.73h-2.82v7.29h-.85Z"/>
    <path class="cls-4" d="M103.84,117v-8.03h5.5v.73h-4.66v6.56h4.83v.73h-5.68,0ZM104.6,113.29v-.72h4.24v.72h-4.24Z"/>
    <path class="cls-4" d="M114.98,117.07c-.6,0-1.16-.1-1.67-.3-.51-.2-.96-.49-1.33-.85-.38-.37-.67-.8-.88-1.29s-.32-1.04-.32-1.63.11-1.13.32-1.63.5-.93.88-1.3.82-.65,1.34-.85c.51-.2,1.07-.3,1.67-.3s1.13.1,1.64.29c.51.2.94.49,1.3.88l-.54.54c-.33-.34-.69-.58-1.09-.73s-.83-.22-1.28-.22c-.48,0-.93.08-1.34.25-.41.17-.77.4-1.08.7-.31.3-.54.65-.72,1.05s-.26.84-.26,1.32.09.92.26,1.32.41.75.72,1.06c.31.3.67.54,1.08.7.41.16.86.25,1.34.25s.89-.08,1.28-.23c.4-.15.76-.4,1.09-.73l.54.54c-.35.39-.78.68-1.3.88-.51.2-1.06.3-1.65.3v-.02Z"/>
    <path class="cls-4" d="M119.62,117v-8.03h.85v8.03h-.85ZM120.38,113.3v-.75h5.19v.75h-5.19ZM125.5,117v-8.03h.84v8.03h-.84Z"/>
    <path class="cls-4" d="M131.95,117v-8.03h.85v7.29h4.5v.73h-5.35Z"/>
    <path class="cls-4" d="M138.7,117v-8.03h.85v7.29h4.5v.73h-5.35Z"/>
    <path class="cls-4" d="M145.46,117v-8.03h3c.68,0,1.27.11,1.75.33.49.22.87.53,1.13.94s.4.9.4,1.49-.13,1.05-.4,1.46-.64.72-1.13.95c-.49.22-1.07.33-1.75.33h-2.54l.38-.4v2.94h-.85,0ZM146.31,114.13l-.38-.41h2.51c.8,0,1.41-.17,1.83-.52.42-.35.62-.84.62-1.47s-.21-1.14-.62-1.49c-.42-.35-1.03-.53-1.83-.53h-2.51l.38-.4v4.83h0Z"/>
  </g>
  <line class="cls-3" x1="32.3" y1="113.76" x2="56.56" y2="113.76"/>
  <line class="cls-3" x1="155.3" y1="113.76" x2="179.56" y2="113.76"/>
</svg>