<?xml version="1.0" encoding="UTF-8"?>
<svg id="Layer_1" data-name="Layer 1" xmlns="http://www.w3.org/2000/svg" viewBox="0 0 80.38 67.74">
  <defs>
    <style>
      .cls-1 {
        fill: #29abe2;
      }

      .cls-2 {
        fill: #052659;
      }
    </style>
  </defs>
  <path class="cls-2" d="M70.9,7.31h-15.53v.4s4.9-.4,5.15,3.48c0,.54.01,4.43.02,5.83l.02,5.92c0,2.23.26,25.26-.34,26.29-.56.97-1.55,1.52-2.61,1.77-.76.17-1.55.21-2.32.18v.45h16.12v-.45c0,.06-.9.12-.96.12-.7.02-1.41-.07-2.05-.36-1.34-.6-1.94-1.91-2.13-3.3-.28-1.98-.11-29.38-.11-31.35v-5.1s0-3.79,4.74-3.51v-.36h0Z"/>
  <polygon class="cls-2" points="55.89 42.29 50.32 42.29 50.35 22.17 55.82 26.01 55.89 42.29"/>
  <path class="cls-2" d="M49.11,14.64l-6.85,4.77v23.64s3.3-.93,6.78-.77l.06-27.64h0Z"/>
  <path class="cls-2" d="M40.41,43.21s-3.49.64-5.63,1.47l.1-9.44,5.47-3.87.06,11.84h0Z"/>
  <path class="cls-2" d="M59.11,43.89s-27.13-5.06-48.19,12.06c0,0,14.3-9.74,28.81-11.28s19.39-.78,19.39-.78h-.01Z"/>
  <path class="cls-1" d="M59.22,45.37s-29.68-3.22-50.25,15.06h13.79s12.83-13.74,36.47-15.06h-.01Z"/>
</svg>